HIERARCHY
ROOT Hips
{
	OFFSET 0.00000 0.00000 0.00000
	CHANNELS 6 Xposition Yposition Zposition Zrotation Yrotation Xrotation 
	JOINT LHipJoint
	{
		OFFSET 0 0 0
		CHANNELS 3 Zrotation Yrotation Xrotation
		JOINT LeftUpLeg
		{
			OFFSET 1.62964 -1.40469 0.78906
			CHANNELS 3 Zrotation Yrotation Xrotation
			JOINT LeftLeg
			{
				OFFSET 2.29640 -6.30932 0.00000
				CHANNELS 3 Zrotation Yrotation Xrotation
				JOINT LeftFoot
				{
					OFFSET 2.29451 -6.30412 0.00000
					CHANNELS 3 Zrotation Yrotation Xrotation
					JOINT LeftToeBase
					{
						OFFSET 0.03611 -0.09921 1.56387
						CHANNELS 3 Zrotation Yrotation Xrotation
						End Site
						{
							OFFSET 0.00000 -0.00000 0.80291
						}
					}
				}
			}
		}
	}
	JOINT RHipJoint
	{
		OFFSET 0 0 0
		CHANNELS 3 Zrotation Yrotation Xrotation
		JOINT RightUpLeg
		{
			OFFSET -1.73712 -1.40469 0.78906
			CHANNELS 3 Zrotation Yrotation Xrotation
			JOINT RightLeg
			{
				OFFSET -2.28137 -6.26801 0.00000
				CHANNELS 3 Zrotation Yrotation Xrotation
				JOINT RightFoot
				{
					OFFSET -2.28681 -6.28298 0.00000
					CHANNELS 3 Zrotation Yrotation Xrotation
					JOINT RightToeBase
					{
						OFFSET -0.15927 -0.43759 1.61103
						CHANNELS 3 Zrotation Yrotation Xrotation
						End Site
						{
							OFFSET -0.00000 -0.00000 0.84630
						}
					}
				}
			}
		}
	}
	JOINT LowerBack
	{
		OFFSET 0 0 0
		CHANNELS 3 Zrotation Yrotation Xrotation
		JOINT Spine
		{
			OFFSET -0.04227 2.04338 -0.00225
			CHANNELS 3 Zrotation Yrotation Xrotation
			JOINT Spine1
			{
				OFFSET -0.02148 2.04482 -0.04273
				CHANNELS 3 Zrotation Yrotation Xrotation
				JOINT Neck
				{
					OFFSET 0 0 0
					CHANNELS 3 Zrotation Yrotation Xrotation
					JOINT Neck1
					{
						OFFSET 0.09180 1.44629 0.19359
						CHANNELS 3 Zrotation Yrotation Xrotation
						JOINT Head
						{
							OFFSET 0.00887 1.40645 0.14750
							CHANNELS 3 Zrotation Yrotation Xrotation
							End Site
							{
								OFFSET -0.00669 1.50671 0.03707
							}
						}
					}
				}
				JOINT LeftShoulder
				{
					OFFSET 0 0 0
					CHANNELS 3 Zrotation Yrotation Xrotation
					JOINT LeftArm
					{
						OFFSET 2.17674 1.86763 -0.06520
						CHANNELS 3 Zrotation Yrotation Xrotation
						JOINT LeftForeArm
						{
							OFFSET 4.65776 -0.00000 0.00000
							CHANNELS 3 Zrotation Yrotation Xrotation
							JOINT LeftHand
							{
								OFFSET 3.55539 -0.00000 0.00000
								CHANNELS 3 Zrotation Yrotation Xrotation
								JOINT LeftFingerBase
								{
									OFFSET 0 0 0
									CHANNELS 3 Zrotation Yrotation Xrotation
									JOINT LeftHandIndex1
									{
										OFFSET 0.70726 -0.00000 0.00000
										CHANNELS 3 Zrotation Yrotation Xrotation
										End Site
										{
											OFFSET 0.57022 -0.00000 0.00000
										}
									}
								}
								JOINT LThumb
								{
									OFFSET 0 0 0
									CHANNELS 3 Zrotation Yrotation Xrotation
									End Site
									{
										OFFSET 0.57892 -0.00000 0.57892
									}
								}
							}
						}
					}
				}
				JOINT RightShoulder
				{
					OFFSET 0 0 0
					CHANNELS 3 Zrotation Yrotation Xrotation
					JOINT RightArm
					{
						OFFSET -2.80694 1.55459 -0.32496
						CHANNELS 3 Zrotation Yrotation Xrotation
						JOINT RightForeArm
						{
							OFFSET -4.71925 -0.00000 -0.00000
							CHANNELS 3 Zrotation Yrotation Xrotation
							JOINT RightHand
							{
								OFFSET -3.56990 -0.00000 0.00000
								CHANNELS 3 Zrotation Yrotation Xrotation
								JOINT RightFingerBase
								{
									OFFSET 0 0 0
									CHANNELS 3 Zrotation Yrotation Xrotation
									JOINT RightHandIndex1
									{
										OFFSET -0.50776 -0.00000 0.00000
										CHANNELS 3 Zrotation Yrotation Xrotation
										End Site
										{
											OFFSET -0.40937 -0.00000 0.00000
										}
									}
								}
								JOINT RThumb
								{
									OFFSET 0 0 0
									CHANNELS 3 Zrotation Yrotation Xrotation
									End Site
									{
										OFFSET -0.41562 -0.00000 0.41562
									}
								}
							}
						}
					}
				}
			}
		}
	}
}
MOTION
Frames: 15
Frame Time: .0083333
9.2991 16.328 18.807 0 0 0 0 0 0 -21 0 0 0 0 0 0 0 0 0 0 0 0 0 0 21 0 0 0 0 0 0 0 0 0 0 0 0 0 0 0 0 0 0 0 0 0 0 -16 0 0 21 0 0 11 0 0 0 -8 0 0 0 0 0 0 0 0 0 0 0 0 0 0 0 0 0 0 0 0 8 0 0 0 0 0 0 0 0 0 0 0 0 0 0 0 0 0
9.2991 16.3280 18.8070 179.7170 -1.4660 -152.9800 0.0000 0.0000 0.0000 -15.9358 -18.0669 -20.5666 0.1881 2.7934 7.7041 0.1871 -0.8593 -7.9110 5.3868 -13.8066 -42.4680 0.0000 0.0000 0.0000 17.6311 15.9914 -21.0527 -0.1452 -2.4560 6.7676 -0.9812 2.0036 -18.1547 -3.1086 10.8688 -31.8388 -6.0966 -1.1628 -29.8805 -0.2219 -0.4184 -2.7283 2.8189 -0.8887 12.6430 -4.1462 0.1491 0.0344 6.8739 -0.6343 8.9389 2.9821 -0.4147 2.9275 0.0000 0.0000 0.0000 -86.6766 -2.2101 22.5968 8.6917 -14.6677 -1.1208 -0.0000 -0.0000 12.0328 23.1428 -12.1588 -5.1441 -7.1250 0.0000 -0.0000 -2.8315 16.8030 1.8944 0.0000 0.0000 0.0000 92.7022 -0.2429 0.6308 -12.4024 20.4053 -2.2406 0.0000 0.0000 8.6595 -11.1398 -44.2101 7.8182 7.1250 -0.0000 -0.0000 41.4833 -70.7959 -26.9619
9.2995 16.3295 18.8057 179.7430 -1.4542 -153.0240 0.0000 0.0000 0.0000 -15.9323 -17.9944 -20.5116 0.1865 2.7810 7.6697 0.1834 -0.8299 -7.8372 5.6066 -14.0360 -43.3817 0.0000 0.0000 0.0000 17.6380 16.1040 -20.9051 -0.1419 -2.4276 6.6889 -0.9824 2.0594 -18.1535 -2.9564 10.6241 -31.0222 -6.0998 -1.1180 -29.8083 -0.2398 -0.3596 -2.7349 2.8251 -0.8596 12.5982 -4.0676 0.1155 0.1074 6.8567 -0.6844 8.9202 2.9592 -0.4399 2.9096 0.0000 -0.0000 0.0000 -86.6678 -2.1487 22.7072 8.7327 -14.7335 -1.1312 -0.0000 -0.0000 11.9382 22.7785 -12.1209 -5.0389 -7.1250 0.0000 -0.0000 -3.0830 16.8798 2.0580 0.0000 -0.0000 0.0000 92.7432 -0.2937 0.5748 -12.4248 20.4386 -2.2484 0.0000 0.0000 8.5790 -11.1714 -44.2958 7.8525 7.1250 -0.0000 -0.0000 41.6351 -70.8664 -27.1321
9.2986 16.3288 18.8043 179.7650 -1.4816 -153.0050 0.0000 0.0000 0.0000 -15.9138 -17.9815 -20.5304 0.1869 2.7842 7.6784 0.1819 -0.8184 -7.8074 5.7863 -14.2180 -44.1180 0.0000 0.0000 0.0000 17.6336 16.1989 -20.8592 -0.1403 -2.4136 6.6503 -0.9899 2.0139 -18.2354 -2.8970 10.5265 -30.6990 -6.0482 -1.1150 -29.8147 -0.2330 -0.3695 -2.7210 2.8009 -0.8612 12.6184 -4.1165 0.1132 0.0659 6.8727 -0.6848 8.9272 2.9744 -0.4397 2.9205 0.0000 -0.0000 0.0000 -86.6971 -2.1489 22.7798 8.7688 -14.7912 -1.1404 -0.0000 -0.0000 11.7648 22.4425 -12.1136 -4.9538 -7.1250 0.0000 -0.0000 -3.3166 16.9203 2.2115 0.0000 -0.0000 0.0000 92.7285 -0.2473 0.5966 -12.4245 20.4382 -2.2483 0.0000 0.0000 8.5962 -11.1350 -44.3793 7.8382 7.1250 -0.0000 -0.0000 41.8508 -70.9120 -27.3274
9.2973 16.3270 18.8020 179.7560 -1.4962 -152.9830 0.0000 0.0000 0.0000 -15.9345 -18.0087 -20.5304 0.1882 2.7937 7.7050 0.1852 -0.8154 -7.8809 5.8434 -14.2748 -44.3499 0.0000 0.0000 0.0000 17.6461 16.1765 -20.8842 -0.1408 -2.4187 6.6643 -0.9879 1.8181 -18.2627 -3.0734 10.8129 -31.6514 -6.0277 -1.1144 -29.8651 -0.2475 -0.3668 -2.6953 2.7746 -0.8595 12.6698 -4.1195 0.1109 0.0732 6.8755 -0.6888 8.9291 2.9758 -0.4421 2.9202 -0.0000 -0.0000 0.0000 -86.6771 -2.1790 22.8466 8.7559 -14.7706 -1.1371 -0.0000 -0.0000 11.7093 23.1864 -12.1326 -5.1440 -7.1250 0.0000 -0.0000 -2.7998 16.8269 1.8717 -0.0000 -0.0000 0.0000 92.7411 -0.2225 0.6493 -12.4480 20.4731 -2.2565 0.0000 0.0000 8.6070 -11.0825 -44.4392 7.8090 7.1250 -0.0000 -0.0000 42.0326 -70.9356 -27.4794
9.2973 16.3276 18.8014 179.7390 -1.4948 -153.0180 0.0000 0.0000 0.0000 -15.9447 -18.0844 -20.4459 0.1893 2.8018 7.7274 0.1896 -0.8031 -7.9789 5.6946 -14.1257 -43.7434 0.0000 0.0000 0.0000 17.6610 16.1270 -20.8662 -0.1415 -2.4239 6.6786 -0.9825 1.6791 -18.2449 -3.2321 11.0616 -32.4881 -6.0482 -1.1578 -29.8394 -0.2157 -0.4125 -2.6583 2.8036 -0.8799 12.7053 -4.1576 0.1253 0.0656 6.8738 -0.6678 8.9347 2.9831 -0.4326 2.9225 -0.0000 0.0000 0.0000 -86.7399 -2.2306 22.6767 8.7366 -14.7397 -1.1322 -0.0000 -0.0000 11.7721 22.5507 -12.1828 -5.0081 -7.1250 0.0000 -0.0000 -3.2443 16.8356 2.1691 -0.0000 0.0000 0.0000 92.6812 -0.1965 0.7887 -12.4645 20.4977 -2.2623 0.0000 0.0000 8.5916 -10.9729 -44.4415 7.7311 7.1250 -0.0000 -0.0000 42.1466 -70.8997 -27.5309
9.2965 16.3282 18.8010 179.6960 -1.4952 -153.0370 0.0000 0.0000 0.0000 -15.9812 -18.1543 -20.3985 0.1902 2.8088 7.7468 0.1920 -0.8085 -8.0297 5.4789 -13.9036 -42.8525 0.0000 0.0000 0.0000 17.5525 16.2406 -20.7873 -0.1396 -2.4076 6.6337 -0.9840 1.7034 -18.2533 -3.0738 10.8135 -31.6534 -6.0893 -1.2114 -29.7570 -0.1896 -0.4773 -2.6713 2.8306 -0.9100 12.6600 -4.2073 0.1395 0.0299 6.8657 -0.6452 8.9524 2.9908 -0.4220 2.9342 0.0000 -0.0000 0.0000 -86.8302 -2.2304 22.2965 8.7136 -14.7029 -1.1263 -0.0000 -0.0000 12.0666 22.9025 -12.2554 -5.1244 -7.1250 0.0000 -0.0000 -3.0030 16.7230 2.0147 0.0000 -0.0000 0.0000 92.6234 -0.2260 0.9395 -12.4746 20.5126 -2.2659 0.0000 0.0000 8.5814 -10.9495 -44.4112 7.7103 7.1250 -0.0000 -0.0000 42.1046 -70.8709 -27.4753
9.2948 16.3282 18.8000 179.6560 -1.5116 -153.0200 0.0000 0.0000 0.0000 -16.0298 -18.1770 -20.4150 0.1897 2.8048 7.7357 0.1897 -0.7714 -7.9880 5.5180 -13.9444 -43.0151 0.0000 0.0000 0.0000 17.4297 16.3864 -20.7277 -0.1379 -2.3936 6.5948 -0.9860 1.7250 -18.2667 -2.8772 10.4935 -30.5902 -6.1136 -1.2234 -29.6854 -0.2018 -0.4989 -2.7296 2.8231 -0.9206 12.5632 -4.2043 0.1396 0.0337 6.8586 -0.6462 8.9641 2.9879 -0.4230 2.9374 -0.0000 -0.0000 0.0000 -86.8479 -2.1849 22.0690 8.6625 -14.6209 -1.1134 -0.0000 -0.0000 12.3554 23.2621 -12.2700 -5.2199 -7.1250 0.0000 -0.0000 -2.7540 16.6711 1.8503 -0.0000 -0.0000 0.0000 92.6359 -0.3144 0.9675 -12.4938 20.5411 -2.2726 0.0000 0.0000 8.5765 -11.0080 -44.4792 7.7612 7.1250 -0.0000 -0.0000 42.1936 -70.9377 -27.5981
9.2944 16.3283 18.7988 179.7010 -1.4997 -152.9750 0.0000 0.0000 0.0000 -15.9536 -18.2942 -20.3766 0.1832 2.7567 7.6022 0.1837 -0.5561 -7.9170 5.5308 -13.9577 -43.0681 0.0000 0.0000 0.0000 17.5083 16.3962 -20.7572 -0.1373 -2.3886 6.5808 -0.9812 1.6479 -18.2405 -2.9928 10.6833 -31.2191 -6.0743 -1.2073 -29.7067 -0.1850 -0.4996 -2.7625 2.8189 -0.9207 12.5357 -4.2127 0.1421 0.0397 6.8577 -0.6430 8.9657 2.9892 -0.4220 2.9367 0.0000 0.0000 0.0000 -86.8736 -2.1949 21.9448 8.6011 -14.5224 -1.0979 -0.0000 -0.0000 12.5016 23.2995 -12.2818 -5.2343 -7.1250 0.0000 -0.0000 -2.7285 16.6546 1.8342 0.0000 0.0000 0.0000 92.6133 -0.3478 1.0059 -12.5023 20.5536 -2.2756 0.0000 0.0000 8.5176 -11.0093 -44.5931 7.7777 7.1250 -0.0000 -0.0000 42.4404 -71.0165 -27.8463
9.2937 16.3287 18.7982 179.6730 -1.5183 -152.9580 0.0000 0.0000 0.0000 -15.9525 -18.4962 -20.3019 0.1786 2.7219 7.5054 0.1787 -0.3678 -7.8604 5.5983 -14.0274 -43.3472 0.0000 0.0000 0.0000 17.5106 16.3257 -20.7594 -0.1348 -2.3663 6.5190 -0.9752 1.5040 -18.2196 -3.1276 10.8988 -31.9395 -6.0966 -1.2127 -29.7095 -0.2043 -0.4991 -2.7705 2.8102 -0.9217 12.5271 -4.1892 0.1415 0.0634 6.8565 -0.6459 8.9603 2.9840 -0.4235 2.9303 0.0000 -0.0000 0.0000 -86.8567 -2.2121 21.9259 8.5695 -14.4717 -1.0900 -0.0000 -0.0000 12.5667 23.3853 -12.4054 -5.3075 -7.1250 0.0000 -0.0000 -2.6753 16.5127 1.8065 0.0000 -0.0000 0.0000 92.6425 -0.3607 0.9469 -12.5073 20.5611 -2.2773 0.0000 0.0000 8.5369 -10.9645 -44.5523 7.7401 7.1250 -0.0000 -0.0000 42.3958 -70.9732 -27.7759
9.2936 16.3283 18.7977 179.6210 -1.4862 -152.9380 0.0000 0.0000 0.0000 -16.0219 -18.3668 -20.4018 0.1828 2.7539 7.5943 0.1821 -0.6287 -7.8599 5.5253 -13.9520 -43.0453 0.0000 0.0000 0.0000 17.3831 16.4403 -20.7542 -0.1344 -2.3626 6.5088 -0.9782 1.5510 -18.2360 -2.9676 10.6425 -31.0834 -6.1629 -1.2077 -29.7243 -0.2385 -0.4680 -2.7732 2.8204 -0.9113 12.5265 -4.1596 0.1388 0.0654 6.8559 -0.6496 8.9499 2.9779 -0.4243 2.9263 -0.0000 -0.0000 0.0000 -86.8136 -2.2099 22.0391 8.5750 -14.4806 -1.0914 -0.0000 -0.0000 12.5250 23.4205 -12.4894 -5.3516 -7.1250 0.0000 -0.0000 -2.6551 16.4184 1.7983 -0.0000 -0.0000 0.0000 92.7148 -0.4249 0.8791 -12.5680 20.6509 -2.2987 0.0000 0.0000 8.5700 -10.9625 -44.6346 7.7498 7.1250 -0.0000 -0.0000 42.5775 -71.0289 -27.9571
9.2938 16.3285 18.7973 179.6470 -1.4322 -152.9080 0.0000 0.0000 0.0000 -15.9848 -18.2419 -20.4789 0.1845 2.7666 7.6295 0.1841 -0.8133 -7.8574 5.3237 -13.7394 -42.2033 0.0000 0.0000 0.0000 17.3411 16.6108 -20.7539 -0.1339 -2.3586 6.4976 -0.9807 1.6304 -18.2401 -2.8263 10.4084 -30.3096 -6.1611 -1.1851 -29.7572 -0.2414 -0.4381 -2.7723 2.8270 -0.8986 12.5392 -4.1325 0.1349 0.0414 6.8533 -0.6528 8.9402 2.9719 -0.4242 2.9274 -0.0000 -0.0000 0.0000 -86.7697 -2.2098 22.2070 8.6001 -14.5208 -1.0977 -0.0000 -0.0000 12.3683 23.3569 -12.3989 -5.2976 -7.1250 0.0000 -0.0000 -2.6946 16.5226 1.8191 -0.0000 -0.0000 0.0000 92.7379 -0.4881 0.9843 -12.6439 20.7632 -2.3255 0.0000 0.0000 8.4551 -10.9715 -44.8298 7.7827 7.1250 -0.0000 -0.0000 43.0003 -71.1651 -28.3862
9.2936 16.3290 18.7962 179.6820 -1.4348 -152.9180 0.0000 0.0000 0.0000 -15.9666 -18.1732 -20.4790 0.1838 2.7616 7.6157 0.1838 -0.8061 -7.8507 5.4931 -13.9184 -42.9116 0.0000 0.0000 0.0000 17.3869 16.6171 -20.7299 -0.1348 -2.3664 6.5193 -0.9878 1.6147 -18.3116 -2.8584 10.4623 -30.4870 -6.1287 -1.1774 -29.7442 -0.2321 -0.4393 -2.7706 2.8194 -0.8971 12.5360 -4.1125 0.1327 0.0494 6.8498 -0.6562 8.9340 2.9666 -0.4256 2.9237 0.0000 -0.0000 0.0000 -86.7375 -2.2012 22.3534 8.6189 -14.5510 -1.1024 -0.0000 -0.0000 12.1933 23.3778 -12.3181 -5.2690 -7.1250 0.0000 -0.0000 -2.6760 16.6074 1.8015 0.0000 -0.0000 0.0000 92.7216 -0.5046 1.0666 -12.6560 20.7812 -2.3298 0.0000 0.0000 8.3581 -10.9851 -44.9003 7.8020 7.1250 -0.0000 -0.0000 43.1442 -71.2176 -28.5383
9.2927 16.3293 18.7939 179.7380 -1.5065 -152.9460 0.0000 0.0000 0.0000 -15.9303 -18.0600 -20.5331 0.1890 2.8002 7.7229 0.1895 -0.9388 -7.9447 5.6346 -14.0646 -43.4968 0.0000 0.0000 0.0000 17.4799 16.5786 -20.7140 -0.1385 -2.3981 6.6073 -1.0010 1.6305 -18.4334 -2.8812 10.5001 -30.6120 -6.0440 -1.1533 -29.7236 -0.2444 -0.4375 -2.7867 2.7615 -0.8913 12.5091 -4.0798 0.1251 0.0989 6.8494 -0.6713 8.9319 2.9595 -0.4339 2.9144 -0.0000 0.0000 0.0000 -86.6874 -2.1342 22.5155 8.6272 -14.5643 -1.1045 -0.0000 -0.0000 12.1110 23.5125 -12.3637 -5.3221 -7.1250 0.0000 -0.0000 -2.5849 16.5446 1.7436 -0.0000 0.0000 0.0000 92.7791 -0.5699 1.0226 -12.6621 20.7901 -2.3320 0.0000 0.0000 8.3213 -11.0893 -44.9345 7.8815 7.1250 -0.0000 -0.0000 43.1186 -71.2766 -28.5716
9.2916 16.3297 18.7915 179.7200 -1.5506 -152.9960 0.0000 0.0000 0.0000 -15.9665 -18.0372 -20.5018 0.1921 2.8226 7.7852 0.1910 -1.0241 -7.9569 5.5453 -13.9727 -43.1284 0.0000 0.0000 0.0000 17.5027 16.5077 -20.6419 -0.1373 -2.3883 6.5801 -0.9952 1.5883 -18.3892 -2.9115 10.5504 -30.7781 -6.0347 -1.1469 -29.6947 -0.2748 -0.4287 -2.7849 2.7275 -0.8854 12.4973 -4.0560 0.1170 0.1581 6.8514 -0.6874 8.9292 2.9547 -0.4433 2.9032 0.0000 -0.0000 0.0000 -86.6495 -2.0802 22.6651 8.6371 -14.5801 -1.1070 -0.0000 -0.0000 12.0398 23.5689 -12.3558 -5.3330 -7.1250 0.0000 -0.0000 -2.5454 16.5473 1.7167 0.0000 -0.0000 0.0000 92.8300 -0.6557 1.0708 -12.6964 20.8408 -2.3442 0.0000 0.0000 8.2014 -11.1875 -44.9624 7.9560 7.1250 -0.0000 -0.0000 43.0850 -71.3294 -28.5934
